<?xml version="1.0" encoding="UTF-8" standalone="no"?>
<svg
   xmlns:dc="http://purl.org/dc/elements/1.1/"
   xmlns:cc="http://creativecommons.org/ns#"
   xmlns:rdf="http://www.w3.org/1999/02/22-rdf-syntax-ns#"
   xmlns:svg="http://www.w3.org/2000/svg"
   xmlns="http://www.w3.org/2000/svg"
   xmlns:sodipodi="http://sodipodi.sourceforge.net/DTD/sodipodi-0.dtd"
   xmlns:inkscape="http://www.inkscape.org/namespaces/inkscape"
   width="515mm"
   height="190mm"
   viewBox="0 0 515 190"
   version="1.1"
   id="svg8"
   inkscape:version="1.0.1 (1.0.1+r74)"
   sodipodi:docname="logo.svg">
  <defs
     id="defs2">
    <rect
       x="301.26099"
       y="170.58504"
       width="302.47644"
       height="56.486774"
       id="rect875" />
  </defs>
  <sodipodi:namedview
     id="base"
     pagecolor="#ffffff"
     bordercolor="#666666"
     borderopacity="1.0"
     inkscape:pageopacity="0.0"
     inkscape:pageshadow="2"
     inkscape:zoom="0.50215121"
     inkscape:cx="1004.4334"
     inkscape:cy="544.73939"
     inkscape:document-units="mm"
     inkscape:current-layer="layer1"
     inkscape:document-rotation="0"
     showgrid="false"
     inkscape:window-width="1706"
     inkscape:window-height="859"
     inkscape:window-x="53"
     inkscape:window-y="84"
     inkscape:window-maximized="0" />
  <metadata
     id="metadata5">
    <rdf:RDF>
      <cc:Work
         rdf:about="">
        <dc:format>image/svg+xml</dc:format>
        <dc:type
           rdf:resource="http://purl.org/dc/dcmitype/StillImage" />
        <dc:title></dc:title>
      </cc:Work>
    </rdf:RDF>
  </metadata>
  <g
     inkscape:label="Layer 1"
     inkscape:groupmode="layer"
     id="layer1">
    <circle
       style="opacity:0.995;fill:#f66161;fill-opacity:1;stroke-width:0.801012;paint-order:stroke fill markers"
       id="path837"
       cx="66.194031"
       cy="106.84904"
       r="50.063255" />
    <circle
       style="opacity:0.995;fill:#4fc552;fill-opacity:1;stroke-width:0.801012;paint-order:stroke fill markers"
       id="circle841"
       cx="158.25093"
       cy="53.749523"
       r="50.063255" />
    <circle
       style="opacity:0.995;fill:#4e98e9;fill-opacity:1;stroke-width:0.801012;paint-order:stroke fill markers"
       id="circle843"
       cx="247.63751"
       cy="113.96715"
       r="50.063255" />
    <circle
       style="opacity:0.995;fill:#eeed60;fill-opacity:1;stroke-width:0.801012;paint-order:stroke fill markers"
       id="circle845"
       cx="336.97086"
       cy="59.679966"
       r="50.063255" />
    <circle
       style="opacity:0.995;fill:#cd68e1;fill-opacity:1;stroke-width:0.801012;paint-order:stroke fill markers"
       id="circle847"
       cx="436.05829"
       cy="86.378487"
       r="50.063255" />
    <g
       aria-label="B"
       id="text851"
       style="font-style:normal;font-variant:normal;font-weight:normal;font-stretch:normal;font-size:88.1944px;line-height:1.25;font-family:Impact;-inkscape-font-specification:Impact;letter-spacing:-7.13052px;word-spacing:0px;fill:#000000;fill-opacity:1;stroke:none;stroke-width:0.264583">
      <path
         d="m 46.749817,68.529261 h 18.086742 q 8.56967,0 12.962165,1.334974 4.435558,1.334974 7.148569,5.426023 2.713011,4.047985 2.713011,13.091356 0,6.115041 -1.937865,8.526606 -1.894801,2.411566 -7.536142,3.70348 6.287296,1.4211 8.526607,4.737 2.23931,3.27284 2.23931,10.0769 v 6.45955 q 0,7.06244 -1.636419,10.46447 -1.593356,3.40203 -5.124577,4.65088 -3.531221,1.24884 -14.469393,1.24884 H 46.749817 Z M 64.879623,80.457898 V 95.96082 q 1.162719,-0.04306 1.808674,-0.04306 2.669947,0 3.40203,-1.29191 0.732082,-1.334974 0.732082,-7.536143 0,-3.272839 -0.602891,-4.564749 -0.602892,-1.334973 -1.593356,-1.679483 -0.947401,-0.344509 -3.746539,-0.387573 z m 0,26.354962 v 19.50785 q 3.832666,-0.12919 4.866194,-1.20579 1.076592,-1.07659 1.076592,-5.29683 v -6.50261 q 0,-4.47862 -0.947401,-5.42602 -0.9474,-0.9474 -4.995385,-1.0766 z"
         style="font-size:88.1944px;stroke-width:0.264583"
         id="path890" />
    </g>
    <g
       aria-label="I"
       id="text855"
       style="font-style:normal;font-variant:normal;font-weight:normal;font-stretch:normal;font-size:88.1944px;line-height:1.25;font-family:Impact;-inkscape-font-specification:Impact;letter-spacing:-7.13052px;word-spacing:0px;fill:#000000;fill-opacity:1;stroke:none;stroke-width:0.264583">
      <path
         d="M 166.18336,16.768336 V 86.488419 H 148.05355 V 16.768336 Z"
         style="font-size:88.1944px;stroke-width:0.264583"
         id="path893" />
    </g>
    <g
       aria-label="N"
       id="text859"
       style="font-style:normal;font-variant:normal;font-weight:normal;font-stretch:normal;font-size:88.1944px;line-height:1.25;font-family:Impact;-inkscape-font-specification:Impact;letter-spacing:-7.13052px;word-spacing:0px;fill:#000000;fill-opacity:1;stroke:none;stroke-width:0.264583">
      <path
         d="m 266.80444,78.19958 v 69.72008 h -15.89049 l -9.43094,-31.69486 v 31.69486 H 226.32459 V 78.19958 h 15.15842 L 251.64603,109.593 V 78.19958 Z"
         style="font-size:88.1944px;stroke-width:0.264583"
         id="path887" />
    </g>
    <g
       aria-label="G"
       id="text863"
       style="font-style:normal;font-variant:normal;font-weight:normal;font-stretch:normal;font-size:88.1944px;line-height:1.25;font-family:Impact;-inkscape-font-specification:Impact;letter-spacing:-7.13052px;word-spacing:0px;fill:#000000;fill-opacity:1;stroke:none;stroke-width:0.264583">
      <path
         d="m 358.85324,49.74168 h -18.12981 v -6.33036 q 0,-5.98585 -0.51676,-7.493078 -0.51677,-1.507229 -2.45463,-1.507229 -1.67948,0 -2.28238,1.29191 -0.60289,1.29191 -0.60289,6.631805 V 75.7952 q 0,4.69394 0.60289,6.201169 0.6029,1.464165 2.41157,1.464165 1.98093,0 2.66995,-1.679484 0.73208,-1.679483 0.73208,-6.545677 v -8.268225 h -3.66041 V 56.373485 h 21.23039 v 37.42233 h -11.41188 l -1.67948,-4.995386 q -1.85174,3.229775 -4.69394,4.866195 -2.79914,1.593355 -6.6318,1.593355 -4.56475,0 -8.56967,-2.196247 -3.96186,-2.239311 -6.02892,-5.51215 -2.06705,-3.272839 -2.58382,-6.847123 -0.51676,-3.617349 -0.51676,-10.808982 V 49.181852 q 0,-9.990772 1.07659,-14.512457 1.07659,-4.521685 6.1581,-8.268225 5.12458,-3.789603 13.22055,-3.789603 7.96678,0 13.22055,3.272839 5.25377,3.272839 6.84712,7.794525 1.59336,4.478621 1.59336,13.048292 z"
         style="font-size:88.1944px;stroke-width:0.264583"
         id="path896" />
    </g>
    <g
       aria-label="O"
       id="text867"
       style="font-style:normal;font-variant:normal;font-weight:normal;font-stretch:normal;font-size:88.1944px;line-height:1.25;font-family:Impact;-inkscape-font-specification:Impact;letter-spacing:-7.13052px;word-spacing:0px;fill:#000000;fill-opacity:1;stroke:none;stroke-width:0.264583">
      <path
         d="m 456.56758,92.626769 q 0,10.507531 -0.51677,14.900031 -0.4737,4.34943 -3.10058,7.96678 -2.58382,3.61735 -7.01938,5.55521 -4.43556,1.93787 -10.33528,1.93787 -5.59828,0 -10.0769,-1.80868 -4.43556,-1.85174 -7.14857,-5.51215 -2.71301,-3.66041 -3.22977,-7.96678 -0.51677,-4.30636 -0.51677,-15.072281 V 80.698132 q 0,-10.507536 0.4737,-14.856966 0.51677,-4.392495 3.10059,-8.009843 2.62688,-3.617348 7.06244,-5.555214 4.43556,-1.937865 10.33528,-1.937865 5.59828,0 10.03384,1.851738 4.47862,1.808674 7.19163,5.469086 2.71301,3.660412 3.22977,7.966779 0.51677,4.306367 0.51677,15.072285 z M 438.43777,69.716896 q 0,-4.866195 -0.55982,-6.201169 -0.51677,-1.378037 -2.19625,-1.378037 -1.4211,0 -2.19625,1.119655 -0.73208,1.076592 -0.73208,6.459551 v 32.556134 q 0,6.07198 0.4737,7.49308 0.51676,1.4211 2.32544,1.4211 1.85174,0 2.3685,-1.63642 0.51676,-1.63642 0.51676,-7.79452 z"
         style="font-size:88.1944px;stroke-width:0.264583"
         id="path899" />
    </g>
    <text
       xml:space="preserve"
       id="text873"
       style="font-style:normal;font-variant:normal;font-weight:normal;font-stretch:normal;font-size:50.8px;line-height:1.25;font-family:Impact;-inkscape-font-specification:Impact;letter-spacing:0px;word-spacing:0px;white-space:pre;shape-inside:url(#rect875);fill:#000000;fill-opacity:1;stroke:none;"><tspan
         style="visibility:hidden"
         x="301.26172"
         y="277.92724"><tspan
           dx="0 12.446454 11.54246 11.807041 11.542461 8.080822 11.377094 6.8791733 11.542465"
           style="font-size:22.5778px">Generator</tspan></tspan></text>
    <g
       aria-label="Generator"
       id="text885"
       style="font-style:normal;font-variant:normal;font-weight:normal;font-stretch:normal;font-size:44.0972px;line-height:1.25;font-family:Impact;-inkscape-font-specification:Impact;letter-spacing:0px;word-spacing:0px;fill:#000000;fill-opacity:1;stroke:none;stroke-width:0.264583"
       transform="translate(-58.91137,-5.525565)">
      <path
         d="m 356.508,166.5266 q 0,-7.38542 3.96186,-11.4334 3.96186,-4.04799 11.13196,-4.04799 5.03845,0 8.1821,1.70102 3.14364,1.70101 4.84466,5.44755 l -3.9188,1.16272 q -1.29191,-2.58382 -3.57428,-3.76807 -2.26084,-1.18425 -5.64134,-1.18425 -5.25377,0 -8.03138,3.18671 -2.7776,3.16518 -2.7776,8.93571 0,5.749 2.94986,9.08644 2.94986,3.3159 8.16056,3.3159 2.9714,0 5.53369,-0.90434 2.58382,-0.90433 4.17717,-2.45462 v -5.46909 h -9.0649 v -3.44509 h 12.8545 v 10.46447 q -2.41156,2.45463 -5.92125,3.81113 -3.48816,1.33498 -7.57921,1.33498 -4.75853,0 -8.20363,-1.89481 -3.44509,-1.8948 -5.27529,-5.44755 -1.80868,-3.57428 -1.80868,-8.39742 z"
         style="font-style:normal;font-variant:normal;font-weight:normal;font-stretch:normal;font-size:44.0972px;font-family:'Liberation Sans';-inkscape-font-specification:'Liberation Sans';stroke-width:0.264583"
         id="path902" />
      <path
         d="m 394.53322,171.00523 q 0,4.00492 1.65795,6.17963 1.65795,2.17472 4.84467,2.17472 2.51922,0 4.02645,-1.012 1.52876,-1.01199 2.06706,-2.56229 l 3.40203,0.96894 q -2.08859,5.51215 -9.49554,5.51215 -5.16764,0 -7.88066,-3.07906 -2.69148,-3.07905 -2.69148,-9.15103 0,-5.77053 2.69148,-8.84958 2.71302,-3.07905 7.72993,-3.07905 10.27069,0 10.27069,12.3808 v 0.51677 z m 12.61766,-2.9714 q -0.32298,-3.68194 -1.87327,-5.36142 -1.55029,-1.70102 -4.45709,-1.70102 -2.82067,0 -4.47862,1.8948 -1.63642,1.87327 -1.76561,5.16764 z"
         style="font-style:normal;font-variant:normal;font-weight:normal;font-stretch:normal;font-size:44.0972px;font-family:'Liberation Sans';-inkscape-font-specification:'Liberation Sans';stroke-width:0.264583"
         id="path904" />
      <path
         d="M 430.87896,181.83574 V 167.0649 q 0,-2.30391 -0.45217,-3.57428 -0.45217,-1.27038 -1.44263,-1.83021 -0.99047,-0.55983 -2.9068,-0.55983 -2.79914,0 -4.41403,1.91634 -1.61488,1.91633 -1.61488,5.31836 v 13.50046 h -3.87573 v -18.32359 q 0,-4.06952 -0.12919,-4.97386 h 3.66041 q 0.0215,0.10766 0.0431,0.58136 0.0215,0.4737 0.0431,1.09813 0.0431,0.60289 0.0861,2.3039 h 0.0646 q 1.33497,-2.41156 3.07905,-3.40203 1.76561,-1.01199 4.37096,-1.01199 3.83267,0 5.59828,1.91633 1.78714,1.8948 1.78714,6.2873 v 15.52445 z"
         style="font-style:normal;font-variant:normal;font-weight:normal;font-stretch:normal;font-size:44.0972px;font-family:'Liberation Sans';-inkscape-font-specification:'Liberation Sans';stroke-width:0.264583"
         id="path906" />
      <path
         d="m 443.58274,171.00523 q 0,4.00492 1.65795,6.17963 1.65795,2.17472 4.84466,2.17472 2.51923,0 4.02646,-1.012 1.52876,-1.01199 2.06705,-2.56229 l 3.40203,0.96894 q -2.08858,5.51215 -9.49554,5.51215 -5.16764,0 -7.88065,-3.07906 -2.69148,-3.07905 -2.69148,-9.15103 0,-5.77053 2.69148,-8.84958 2.71301,-3.07905 7.72993,-3.07905 10.27069,0 10.27069,12.3808 v 0.51677 z m 12.61766,-2.9714 q -0.32298,-3.68194 -1.87327,-5.36142 -1.5503,-1.70102 -4.45709,-1.70102 -2.82067,0 -4.47863,1.8948 -1.63642,1.87327 -1.76561,5.16764 z"
         style="font-style:normal;font-variant:normal;font-weight:normal;font-stretch:normal;font-size:44.0972px;font-family:'Liberation Sans';-inkscape-font-specification:'Liberation Sans';stroke-width:0.264583"
         id="path908" />
      <path
         d="m 465.22224,181.83574 v -17.87142 q 0,-2.45463 -0.12919,-5.42603 h 3.66041 q 0.17225,3.96186 0.17225,4.75854 h 0.0861 q 0.92587,-2.99293 2.13165,-4.09105 1.20579,-1.09812 3.40203,-1.09812 0.77515,0 1.57183,0.21532 v 3.55275 q -0.77515,-0.21532 -2.06706,-0.21532 -2.41156,0 -3.68194,2.08859 -1.27038,2.06705 -1.27038,5.94278 v 12.14396 z"
         style="font-style:normal;font-variant:normal;font-weight:normal;font-stretch:normal;font-size:44.0972px;font-family:'Liberation Sans';-inkscape-font-specification:'Liberation Sans';stroke-width:0.264583"
         id="path910" />
      <path
         d="m 485.76361,182.26638 q -3.50969,0 -5.2753,-1.85174 -1.76561,-1.85174 -1.76561,-5.08152 0,-3.61734 2.3685,-5.55521 2.39003,-1.93786 7.68686,-2.06705 l 5.23224,-0.0861 v -1.27038 q 0,-2.8422 -1.20578,-4.06952 -1.20579,-1.22731 -3.78961,-1.22731 -2.60535,0 -3.7896,0.8828 -1.18425,0.88281 -1.4211,2.82067 l -4.04799,-0.36604 q 0.99047,-6.28729 9.34482,-6.28729 4.39249,0 6.61027,2.02399 2.21778,2.00246 2.21778,5.81359 v 10.03384 q 0,1.72255 0.45217,2.60535 0.45217,0.86128 1.72255,0.86128 0.55983,0 1.27038,-0.15073 v 2.41157 q -1.46417,0.34451 -2.99293,0.34451 -2.15318,0 -3.14365,-1.11966 -0.96893,-1.14119 -1.09812,-3.55275 h -0.12919 q -1.4857,2.66995 -3.46663,3.7896 -1.95939,1.09813 -4.78006,1.09813 z m 0.8828,-2.9068 q 2.13165,0 3.7896,-0.96893 1.65796,-0.96894 2.60536,-2.64842 0.96893,-1.70102 0.96893,-3.48816 v -1.91633 l -4.24177,0.0861 q -2.73455,0.0431 -4.15565,0.55982 -1.39957,0.51677 -2.15318,1.59336 -0.75361,1.07659 -0.75361,2.82067 0,1.8948 1.01199,2.92833 1.03353,1.03353 2.92833,1.03353 z"
         style="font-style:normal;font-variant:normal;font-weight:normal;font-stretch:normal;font-size:44.0972px;font-family:'Liberation Sans';-inkscape-font-specification:'Liberation Sans';stroke-width:0.264583"
         id="path912" />
      <path
         d="m 513.30283,181.66348 q -1.91634,0.51677 -3.9188,0.51677 -4.65087,0 -4.65087,-5.2753 v -15.54599 h -2.69148 v -2.82067 h 2.8422 l 1.14119,-5.2107 h 2.58382 v 5.2107 h 4.30636 v 2.82067 h -4.30636 v 14.70625 q 0,1.67948 0.53829,2.3685 0.55983,0.66749 1.91634,0.66749 0.77514,0 2.23931,-0.30145 z"
         style="font-style:normal;font-variant:normal;font-weight:normal;font-stretch:normal;font-size:44.0972px;font-family:'Liberation Sans';-inkscape-font-specification:'Liberation Sans';stroke-width:0.264583"
         id="path914" />
      <path
         d="m 536.29883,170.16548 q 0,6.11505 -2.69148,9.10797 -2.69148,2.99293 -7.81605,2.99293 -5.10305,0 -7.7084,-3.10059 -2.60535,-3.12211 -2.60535,-9.00031 0,-12.05782 10.44294,-12.05782 5.33989,0 7.85912,2.94986 2.51922,2.92833 2.51922,9.10796 z m -4.06952,0 q 0,-4.82313 -1.44263,-6.99784 -1.4211,-2.19625 -4.8016,-2.19625 -3.40203,0 -4.93079,2.23931 -1.50723,2.21778 -1.50723,6.95478 0,4.60782 1.4857,6.93326 1.50723,2.3039 4.71547,2.3039 3.48816,0 4.97386,-2.23931 1.50722,-2.23931 1.50722,-6.99785 z"
         style="font-style:normal;font-variant:normal;font-weight:normal;font-stretch:normal;font-size:44.0972px;font-family:'Liberation Sans';-inkscape-font-specification:'Liberation Sans';stroke-width:0.264583"
         id="path916" />
      <path
         d="m 541.20809,181.83574 v -17.87142 q 0,-2.45463 -0.12919,-5.42603 h 3.66042 q 0.17225,3.96186 0.17225,4.75854 h 0.0861 q 0.92587,-2.99293 2.13165,-4.09105 1.20578,-1.09812 3.40203,-1.09812 0.77515,0 1.57182,0.21532 v 3.55275 q -0.77514,-0.21532 -2.06705,-0.21532 -2.41157,0 -3.68195,2.08859 -1.27038,2.06705 -1.27038,5.94278 v 12.14396 z"
         style="font-style:normal;font-variant:normal;font-weight:normal;font-stretch:normal;font-size:44.0972px;font-family:'Liberation Sans';-inkscape-font-specification:'Liberation Sans';stroke-width:0.264583"
         id="path918" />
    </g>
  </g>
</svg>
